<?xml version="1.0" encoding="UTF-8" standalone="no"?>
<svg
   xmlns:dc="http://purl.org/dc/elements/1.1/"
   xmlns:cc="http://creativecommons.org/ns#"
   xmlns:rdf="http://www.w3.org/1999/02/22-rdf-syntax-ns#"
   xmlns:svg="http://www.w3.org/2000/svg"
   xmlns="http://www.w3.org/2000/svg"
   xmlns:sodipodi="http://sodipodi.sourceforge.net/DTD/sodipodi-0.dtd"
   xmlns:inkscape="http://www.inkscape.org/namespaces/inkscape"
   sodipodi:docname="logo-clocks.svg"
   inkscape:version="1.0 (4035a4f, 2020-05-01)"
   id="svg1706"
   version="1.1"
   viewBox="0 0 88.756767 30.056734"
   height="30.056734mm"
   width="88.756767mm">
  <defs
     id="defs1700" />
  <sodipodi:namedview
     inkscape:window-maximized="0"
     inkscape:window-y="23"
     inkscape:window-x="0"
     inkscape:window-height="943"
     inkscape:window-width="1252"
     fit-margin-bottom="0"
     fit-margin-right="0"
     fit-margin-left="0"
     fit-margin-top="0"
     showgrid="false"
     inkscape:document-rotation="0"
     inkscape:current-layer="layer1"
     inkscape:document-units="mm"
     inkscape:cy="539.65726"
     inkscape:cx="159.15791"
     inkscape:zoom="0.35"
     inkscape:pageshadow="2"
     inkscape:pageopacity="0.0"
     borderopacity="1.0"
     bordercolor="#666666"
     pagecolor="#ffffff"
     id="base" />
  <metadata
     id="metadata1703">
    <rdf:RDF>
      <cc:Work
         rdf:about="">
        <dc:format>image/svg+xml</dc:format>
        <dc:type
           rdf:resource="http://purl.org/dc/dcmitype/StillImage" />
        <dc:title></dc:title>
      </cc:Work>
    </rdf:RDF>
  </metadata>
  <g
     transform="translate(-63.722803,-5.3823491)"
     id="layer1"
     inkscape:groupmode="layer"
     inkscape:label="Layer 1">
    <g
       aria-label="CLOCKS"
       transform="rotate(-120.00401,73.896904,147.56182)"
       id="text863"
       style="font-style:normal;font-weight:normal;font-size:11.5934px;line-height:1.25;font-family:sans-serif;white-space:pre;display:inline;opacity:1;fill:#000000;fill-opacity:1;stroke:#ff0000;stroke-width:1;stroke-miterlimit:4;stroke-dasharray:none;stroke-opacity:1"
       inkscape:transform-center-x="-0.058096523"
       inkscape:transform-center-y="-78.238124">
      <path
         d="m 182.70862,214.5977 0.49579,-5.19779 3.48166,0.33209 q 1.51859,0.14485 1.90547,0.007 0.39804,-0.124 0.45221,-0.69193 0.0612,-0.64201 -0.37909,-0.85843 -0.44032,-0.21642 -1.95892,-0.36127 l -9.28442,-0.88557 q -1.45687,-0.13897 -1.91782,-0.009 -0.46095,0.13045 -0.51866,0.73542 -0.0554,0.58028 0.37263,0.79552 0.42681,0.22759 2.06887,0.38421 l 2.5063,0.23906 -0.49579,5.1978 -0.77781,-0.0742 q -3.09893,-0.29559 -4.3529,-0.86371 -1.25514,-0.55577 -2.08683,-2.15505 -0.83286,-1.58694 -0.62324,-3.78458 0.21786,-2.28407 1.18638,-3.68672 0.96851,-1.40266 2.47131,-1.7452 1.51513,-0.34137 4.45356,-0.0611 l 5.8398,0.55702 q 2.1606,0.20608 3.2206,0.45669 1.07234,0.25179 2.00291,1.07561 0.9294,0.83616 1.37368,2.1867 0.45544,1.36406 0.29411,3.0555 -0.21904,2.29641 -1.25047,3.70553 -1.03143,1.40911 -2.40958,1.75109 -1.3658,0.34315 -4.16841,0.0758 z"
         style="font-style:normal;font-variant:normal;font-weight:normal;font-stretch:normal;font-size:25.4px;font-family:Impact;-inkscape-font-specification:Impact;stroke:#ff0000;stroke-width:1;stroke-miterlimit:4;stroke-dasharray:none;stroke-opacity:1"
         id="path1716" />
      <path
         d="m 189.00072,225.53815 -15.53178,-4.08909 -0.80835,3.07037 -3.88594,-1.02306 2.13769,-8.1197 19.41773,5.11215 z"
         style="font-style:normal;font-variant:normal;font-weight:normal;font-stretch:normal;font-size:25.4px;font-family:Impact;-inkscape-font-specification:Impact;stroke:#ff0000;stroke-width:1;stroke-miterlimit:4;stroke-dasharray:none;stroke-opacity:1"
         id="path1718" />
      <path
         d="m 171.18709,239.04176 q -2.76412,-1.2318 -3.85904,-1.88267 -1.08863,-0.6345 -1.73227,-1.74959 -0.64868,-1.10376 -0.63848,-2.49776 0.0102,-1.394 0.70183,-2.94599 0.65628,-1.47269 1.6571,-2.43881 1.0071,-0.94975 2.28806,-1.23433 1.28096,-0.28458 2.47438,0.0843 1.19342,0.36889 4.02551,1.63098 l 3.13797,1.39839 q 2.76412,1.2318 3.85276,1.86629 1.09491,0.65088 1.7436,1.75464 0.64363,1.11509 0.63343,2.50909 -0.0102,1.394 -0.70183,2.94599 -0.65628,1.47269 -1.66338,2.42244 -1.00082,0.96612 -2.28178,1.2507 -1.28096,0.28457 -2.47438,-0.0843 -1.19342,-0.36889 -4.02552,-1.63098 z m 8.15206,-2.08353 q 1.2801,0.57046 1.69691,0.57969 0.42309,0.0256 0.61998,-0.4162 0.16659,-0.37384 -0.0371,-0.709 -0.19739,-0.3188 -1.61344,-0.94984 l -8.56426,-3.81655 q -1.5973,-0.71182 -2.02667,-0.7538 -0.43442,-0.0306 -0.64645,0.44514 -0.21708,0.48712 0.15282,0.8149 0.3699,0.32777 1.98986,1.04969 z"
         style="font-style:normal;font-variant:normal;font-weight:normal;font-stretch:normal;font-size:25.4px;font-family:Impact;-inkscape-font-specification:Impact;stroke:#ff0000;stroke-width:1;stroke-miterlimit:4;stroke-dasharray:none;stroke-opacity:1"
         id="path1720" />
      <path
         d="m 164.89246,253.86691 2.99238,-4.27885 2.86612,2.00439 q 1.25011,0.87426 1.65453,0.94521 0.40747,0.0882 0.73443,-0.37931 0.3696,-0.52851 0.0931,-0.93378 -0.27654,-0.40528 -1.52666,-1.27954 l -7.64298,-5.34505 q -1.1993,-0.83872 -1.66469,-0.95231 -0.4654,-0.11359 -0.81368,0.38442 -0.33407,0.47769 -0.0677,0.87586 0.25927,0.40833 1.61102,1.35367 l 2.0632,1.44288 -2.99238,4.27885 -0.6403,-0.4478 q -2.55105,-1.78405 -3.36234,-2.89625 -0.8184,-1.10205 -0.75417,-2.90351 0.0571,-1.79131 1.32231,-3.60042 1.31494,-1.88025 2.84883,-2.62365 1.53389,-0.74341 3.0104,-0.30107 1.48666,0.44945 3.90558,2.14111 l 4.80736,3.36198 q 1.77862,1.24386 2.57755,1.9842 0.8091,0.74745 1.21298,1.92283 0.39678,1.18554 0.11799,2.57967 -0.27574,1.4114 -1.24951,2.80381 -1.32204,1.89041 -2.91386,2.60844 -1.59182,0.71803 -2.95958,0.3366 -1.35759,-0.37432 -3.66471,-1.98778 z"
         style="font-style:normal;font-variant:normal;font-weight:normal;font-stretch:normal;font-size:25.4px;font-family:Impact;-inkscape-font-specification:Impact;stroke:#ff0000;stroke-width:1;stroke-miterlimit:4;stroke-dasharray:none;stroke-opacity:1"
         id="path1722" />
      <path
         d="m 159.434,271.88567 -4.18531,-8.57971 -10.03033,-5.60404 3.86443,-3.76462 7.51633,4.69409 -6.00609,-6.16532 3.74006,-3.64347 14.01132,14.38281 -3.74006,3.64346 -5.44356,-5.58788 3.7823,7.20623 z"
         style="font-style:normal;font-variant:normal;font-weight:normal;font-stretch:normal;font-size:25.4px;font-family:Impact;-inkscape-font-specification:Impact;stroke:#ff0000;stroke-width:1;stroke-miterlimit:4;stroke-dasharray:none;stroke-opacity:1"
         id="path1724" />
      <path
         d="m 143.00525,275.99277 4.0283,-2.69974 0.82857,1.23631 q 0.57999,0.86541 0.89334,0.9988 0.31335,0.13339 0.67394,-0.10828 0.3915,-0.26238 0.3835,-0.71985 -0.0183,-0.45057 -0.45329,-1.09963 -0.55928,-0.83451 -1.06903,-1.10501 -0.49945,-0.27741 -1.90958,-0.1983 -4.04811,0.2197 -5.539,-0.37863 -1.49089,-0.59833 -3.13422,-3.05035 -1.19451,-1.78234 -1.33829,-2.91025 -0.15409,-1.121 0.65435,-2.49889 0.81534,-1.36759 2.40194,-2.43091 1.74113,-1.1669 3.41934,-1.3361 1.66791,-0.16229 2.73267,0.60219 1.06476,0.76448 2.32142,2.63954 l 0.7319,1.09208 -4.02831,2.69974 -1.36022,-2.02961 q -0.62833,-0.93753 -0.9727,-1.09492 -0.35466,-0.15049 -0.78737,0.13951 -0.43271,0.29 -0.41091,0.76808 0.0115,0.48498 0.46031,1.15465 0.98738,1.47327 1.69298,1.6573 0.71591,0.17712 3.0446,0.15424 2.3356,-0.0126 3.18555,0.11951 0.84995,0.13208 1.77333,0.75244 0.91308,0.62726 1.80379,1.95629 1.28427,1.91628 1.39386,3.12682 0.0993,1.21745 -0.66137,2.44387 -0.75374,1.23673 -2.29912,2.27243 -1.68963,1.13238 -3.24037,1.38038 -1.56105,0.25491 -2.50153,-0.32412 -0.94387,-0.56183 -2.27648,-2.55023 z"
         style="font-style:normal;font-variant:normal;font-weight:normal;font-stretch:normal;font-size:25.4px;font-family:Impact;-inkscape-font-specification:Impact;stroke:#ff0000;stroke-width:1;stroke-miterlimit:4;stroke-dasharray:none;stroke-opacity:1"
         id="path1726" />
    </g>
  </g>
</svg>
